<svg width="32" height="32" viewBox="0 0 32 32" fill="none" xmlns="http://www.w3.org/2000/svg">
<path d="M5.33366 21.3334V5.33341H2.66699V2.66675H6.66699C7.02061 2.66675 7.35975 2.80722 7.6098 3.05727C7.85985 3.30732 8.00033 3.64646 8.00033 4.00008V20.0001H24.5843L27.251 9.33342H10.667V6.66675H28.9603C29.163 6.66675 29.363 6.71296 29.5451 6.80186C29.7273 6.89076 29.8868 7.02002 30.0114 7.1798C30.1361 7.33958 30.2227 7.52568 30.2647 7.72396C30.3067 7.92224 30.3029 8.12748 30.2537 8.32408L26.9203 21.6574C26.8481 21.9457 26.6816 22.2017 26.4473 22.3845C26.2129 22.5674 25.9242 22.6667 25.627 22.6667H6.66699C6.31337 22.6667 5.97423 22.5263 5.72418 22.2762C5.47413 22.0262 5.33366 21.687 5.33366 21.3334ZM8.00033 30.6667C7.29308 30.6667 6.6148 30.3858 6.11471 29.8857C5.61461 29.3856 5.33366 28.7073 5.33366 28.0001C5.33366 27.2928 5.61461 26.6146 6.11471 26.1145C6.6148 25.6144 7.29308 25.3334 8.00033 25.3334C8.70757 25.3334 9.38585 25.6144 9.88594 26.1145C10.386 26.6146 10.667 27.2928 10.667 28.0001C10.667 28.7073 10.386 29.3856 9.88594 29.8857C9.38585 30.3858 8.70757 30.6667 8.00033 30.6667ZM24.0003 30.6667C23.2931 30.6667 22.6148 30.3858 22.1147 29.8857C21.6146 29.3856 21.3337 28.7073 21.3337 28.0001C21.3337 27.2928 21.6146 26.6146 22.1147 26.1145C22.6148 25.6144 23.2931 25.3334 24.0003 25.3334C24.7076 25.3334 25.3858 25.6144 25.8859 26.1145C26.386 26.6146 26.667 27.2928 26.667 28.0001C26.667 28.7073 26.386 29.3856 25.8859 29.8857C25.3858 30.3858 24.7076 30.6667 24.0003 30.6667Z" fill="#E7E7E7"/>
</svg>
